<svg xmlns="http://www.w3.org/2000/svg" viewBox="0 0 300 300"><g id="Layer_2" data-name="Layer 2"><g id="Layer_1-2" data-name="Layer 1"><path d="M275,10a15,15,0,0,1,15,15V275a15,15,0,0,1-15,15H25a15,15,0,0,1-15-15V25A15,15,0,0,1,25,10H275m0-10H25A25,25,0,0,0,0,25V275a25,25,0,0,0,25,25H275a25,25,0,0,0,25-25V25A25,25,0,0,0,275,0Z"/><path d="M43,191.2l61.09,48.23a4.92,4.92,0,0,0,7.27-.5L257,59.2" style="fill:none;stroke:#000;stroke-linecap:round;stroke-miterlimit:25;stroke-width:15px"/></g></g></svg>